<svg width="129" height="20" viewBox="0 0 129 20" xmlns="http://www.w3.org/2000/svg">
    <g fill="#1C1C1C" fill-rule="evenodd">
        <g fill-rule="nonzero">
            <path d="M128.42 11.86v-.954c0-1.695-.591-3.31-1.685-4.535a5.827 5.827 0 0 0-1.916-1.445 5.602 5.602 0 0 0-2.419-.541c-.842 0-1.655.18-2.418.541a6.08 6.08 0 0 0-1.916 1.445c-1.074 1.224-1.676 2.84-1.676 4.535 0 1.706.602 3.312 1.686 4.536a6.078 6.078 0 0 0 1.916 1.445 5.602 5.602 0 0 0 2.419.541 6.481 6.481 0 0 0 5.097-2.458l-1.505-1.204a4.599 4.599 0 0 1-3.603 1.736c-1.966 0-3.612-1.565-4.003-3.652H128.421v.01zM122.41 6.3c1.967 0 3.613 1.565 4.004 3.652h-7.997c.381-2.087 2.027-3.652 3.993-3.652zM91.196 14.188l-2.94-9.532h-2.177l-2.94 9.532-2.94-9.532h-2.017l3.893 12.612h2.127l2.97-9.352 2.96 9.352h2.127l3.893-12.612h-2.016zM72.884 4.926a5.602 5.602 0 0 0-2.418-.541c-.843 0-1.655.18-2.418.541a6.08 6.08 0 0 0-1.917 1.445c-1.083 1.224-1.685 2.83-1.685 4.535 0 1.706.602 3.312 1.685 4.536a6.078 6.078 0 0 0 1.917 1.445 5.602 5.602 0 0 0 2.418.541 6.481 6.481 0 0 0 4.616-1.916c.17-.17.34-.361.491-.542l-1.505-1.204a4.593 4.593 0 0 1-3.592 1.736c-1.966 0-3.612-1.565-4.003-3.652H76.487v-.944c0-1.695-.602-3.31-1.686-4.535a6.08 6.08 0 0 0-1.917-1.445zm-2.418 1.375c1.967 0 3.612 1.565 4.004 3.652h-7.997c.381-2.087 2.027-3.652 3.993-3.652zM26.99 15.512a4.606 4.606 0 1 1 3.603-7.475l1.505-1.204a5.018 5.018 0 0 0-.492-.542 6.472 6.472 0 0 0-4.616-1.906 6.514 6.514 0 0 0-4.615 1.906 6.472 6.472 0 0 0-1.906 4.615c0 1.746.682 3.382 1.906 4.616a6.482 6.482 0 0 0 4.615 1.916 6.481 6.481 0 0 0 4.616-1.916c.17-.17.341-.361.492-.542l-1.505-1.204a4.629 4.629 0 0 1-3.603 1.736zM40.476 4.435A6.514 6.514 0 0 0 35.86 6.34a6.482 6.482 0 0 0-1.916 4.616c0 1.746.682 3.381 1.916 4.615a6.482 6.482 0 0 0 4.616 1.917 6.481 6.481 0 0 0 4.615-1.917 6.473 6.473 0 0 0 1.907-4.615A6.514 6.514 0 0 0 45.09 6.34a6.531 6.531 0 0 0-4.615-1.906zm0 11.127a4.606 4.606 0 1 1 4.605-4.605 4.612 4.612 0 0 1-4.605 4.605zM59.48 6.1a6.263 6.263 0 0 0-1.666-1.194 5.612 5.612 0 0 0-2.418-.552 5.47 5.47 0 0 0-2.419.552 5.93 5.93 0 0 0-1.906 1.445c-1.084 1.224-1.686 2.83-1.686 4.535 0 1.706.592 3.312 1.686 4.536a6.155 6.155 0 0 0 1.906 1.444 5.612 5.612 0 0 0 2.419.552 5.47 5.47 0 0 0 2.418-.552 6.01 6.01 0 0 0 1.665-1.183v1.575h1.927V0h-1.927v6.1zm-4.084 9.392c-2.258 0-4.094-2.057-4.094-4.606 0-2.538 1.836-4.605 4.094-4.605 2.257 0 4.084 2.057 4.084 4.605 0 2.549-1.827 4.606-4.084 4.606zM99.203 4.645h1.926v12.612h-1.926zM99.072.953h2.187V2.98h-2.187zM109.026 6.301c1.455 0 2.759.682 3.602 1.736l1.505-1.204a5.004 5.004 0 0 0-.492-.542 6.472 6.472 0 0 0-4.615-1.906c-1.074 0-2.118.28-2.94.792-1.074.683-1.686 1.706-1.686 2.83 0 2.508 2.398 3.25 4.395 3.682 2.147.462 3.28.733 3.381 1.887v.05c0 1.053-1.104 1.876-2.458 1.876h-.693a4.583 4.583 0 0 1-3.602-1.736l-1.505 1.204c.15.191.311.372.492.542a6.482 6.482 0 0 0 4.615 1.917h.693c1.083 0 2.117-.341 2.92-.974.933-.722 1.465-1.776 1.465-2.87 0-.47-.1-.922-.281-1.354a2.97 2.97 0 0 0-.633-.943c-.933-.883-2.669-1.315-3.481-1.465a63.259 63.259 0 0 1-1.826-.381c-.783-.211-1.526-.592-1.546-1.465.01-.923 1.215-1.676 2.69-1.676z"/>
        </g>
        <path d="M13.842 11.599a5.302 5.302 0 0 1-1.323 2.834 5.315 5.315 0 0 1-2.772 1.634 5.34 5.34 0 0 1-1.2.14c-.128 0-.252-.01-.377-.019a5.321 5.321 0 0 1-2.918-1.12 5.328 5.328 0 0 1-2.059-4.213v-.001c0-.545.082-1.07.233-1.564a5.318 5.318 0 0 1 1.75-2.594 5.351 5.351 0 0 1 4.48-1.079h.001a5.365 5.365 0 0 1 4.17 4.4c.044.273.073.551.073.837 0 .253-.024.5-.058.745m2.618-1.992-.527.084a7.083 7.083 0 0 0-.667-2.113 7.077 7.077 0 0 0-1.254-1.827 7.076 7.076 0 0 0-1.734-1.379 7.489 7.489 0 0 0-2.188-.84l-.112.524a6.578 6.578 0 0 0-2.052-.126 6.576 6.576 0 0 0-2 .48 6.577 6.577 0 0 0-1.773 1.045l.337.416a6.073 6.073 0 0 0-1.282 1.4 6.063 6.063 0 0 0-.818 1.714l.512.157a5.568 5.568 0 0 0-.257 1.721H0c0 .896.141 1.786.417 2.637a8.071 8.071 0 0 0 1.126 2.258 8.063 8.063 0 0 0 1.736 1.83c.705.551 1.36.922 2.195 1.242.836.321 1.57.484 2.462.546a8.049 8.049 0 0 0 2.514-.198l-.113-.49a7.588 7.588 0 0 0 2.209-.87 8.025 8.025 0 0 0 1.951-1.582 7.594 7.594 0 0 0 1.31-1.98 7.594 7.594 0 0 0 .674-2.275 7.58 7.58 0 0 0-.02-2.374"/>
    </g>
</svg>
